<svg width="80" height="84" viewBox="0 0 80 84" fill="none" xmlns="http://www.w3.org/2000/svg">
<path d="M0 42.1132C0 53.0722 4.21427 63.5823 11.7157 71.3314C19.2172 79.0806 29.3913 83.434 40 83.434C50.6087 83.434 60.7828 79.0806 68.2843 71.3314C75.7857 63.5823 80 53.0722 80 42.1132C80 31.1543 75.7857 20.6442 68.2843 12.895C60.7828 5.14588 50.6087 0.79245 40 0.79245C29.3913 0.79245 19.2172 5.14588 11.7157 12.895C4.21427 20.6442 0 31.1543 0 42.1132V42.1132Z" fill="#FBFBFD"/>
<path d="M15 64.0443C15 64.3081 15.6466 64.5693 16.903 64.813C18.1594 65.0567 20.0009 65.2782 22.3223 65.4647C24.6438 65.6512 27.3998 65.7991 30.4329 65.9001C33.4661 66.001 36.717 66.053 40 66.053C43.283 66.053 46.5339 66.001 49.5671 65.9001C52.6002 65.7991 55.3562 65.6512 57.6777 65.4647C59.9991 65.2782 61.8406 65.0567 63.097 64.813C64.3534 64.5693 65 64.3081 65 64.0443C65 63.7806 64.3534 63.5194 63.097 63.2757C61.8406 63.032 59.9991 62.8105 57.6777 62.624C55.3562 62.4375 52.6002 62.2895 49.5671 62.1886C46.5339 62.0877 43.283 62.0357 40 62.0357C36.717 62.0357 33.4661 62.0877 30.4329 62.1886C27.3998 62.2895 24.6438 62.4375 22.3223 62.624C20.0009 62.8105 18.1594 63.032 16.903 63.2757C15.6466 63.5194 15 63.7806 15 64.0443Z" fill="#EBEBF1"/>
<path d="M70.2241 63.442H10.7761C9.79478 63.442 8.85367 63.0393 8.15978 62.3225C7.4659 61.6057 7.07608 60.6335 7.07608 59.6198V18.1709C7.07608 17.1572 7.4659 16.185 8.15978 15.4682C8.85367 14.7514 9.79478 14.3488 10.7761 14.3488H69.5301C70.5114 14.3488 71.4525 14.7514 72.1464 15.4682C72.8403 16.185 73.2301 17.1572 73.2301 18.1709V59.6229C73.2281 61.7323 72.2661 63.442 70.2241 63.442Z" fill="white"/>
<path d="M29.9124 55.2593C29.9124 55.6033 30.9705 55.9332 32.8541 56.1765C34.7377 56.4197 37.2924 56.5564 39.9562 56.5564C42.62 56.5564 45.1747 56.4197 47.0582 56.1765C48.9418 55.9332 50 55.6033 50 55.2593C50 54.9153 48.9418 54.5853 47.0582 54.3421C45.1747 54.0988 42.62 53.9622 39.9562 53.9622C37.2924 53.9622 34.7377 54.0988 32.8541 54.3421C30.9705 54.5853 29.9124 54.9153 29.9124 55.2593Z" fill="#EBEBF1"/>
<path d="M29 41.0142C29 39.9096 29.8954 39.0142 31 39.0142H49C50.1046 39.0142 51 39.9096 51 41.0142V52.5094C51 53.614 50.1046 54.5094 49 54.5094H31C29.8954 54.5094 29 53.614 29 52.5094V41.0142Z" fill="#F1F3F9" stroke="#B1BCD2" stroke-width="1.16581" stroke-linecap="round" stroke-linejoin="round"/>
<path d="M43.6002 38.7628V35.4094C43.6002 34.411 43.2163 33.4536 42.5329 32.7476C41.8495 32.0417 40.9226 31.6451 39.9562 31.6451C38.9897 31.6451 38.0629 32.0417 37.3795 32.7476C36.6961 33.4536 36.3122 34.411 36.3122 35.4094V38.7628H32.9999V35.4094C33.0191 33.5165 33.7604 31.7078 35.063 30.3762C36.3655 29.0446 38.124 28.2977 39.9566 28.2977C41.7891 28.2977 43.5476 29.0446 44.8502 30.3762C46.1527 31.7078 46.8941 33.5165 46.9132 35.4094V38.7628H43.6002Z" fill="#F1F3F9" stroke="#B1BCD2" stroke-width="1.16581" stroke-linecap="round" stroke-linejoin="round"/>
<path d="M70.2241 63.442H10.7761C9.79478 63.442 8.85367 63.0393 8.15978 62.3225C7.4659 61.6057 7.07608 60.6335 7.07608 59.6198V18.1709C7.07608 17.1572 7.4659 16.185 8.15978 15.4682C8.85367 14.7514 9.79478 14.3488 10.7761 14.3488H69.5301C70.5114 14.3488 71.4525 14.7514 72.1464 15.4682C72.8403 16.185 73.2301 17.1572 73.2301 18.1709V59.6229C73.2281 61.7323 72.2661 63.442 70.2241 63.442Z" stroke="#B1BCD2" stroke-linejoin="round"/>
<path d="M69.5301 14.3508H10.7761C9.79478 14.3508 8.85367 14.7535 8.15978 15.4703C7.4659 16.1871 7.07608 17.1593 7.07608 18.173V23.4414H73.2261V18.173C73.2261 17.16 72.8368 16.1885 72.1438 15.4718C71.4508 14.7551 70.5107 14.3519 69.5301 14.3508Z" fill="#F1F3F9"/>
<path d="M69.5301 14.3508H10.7761C9.79478 14.3508 8.85367 14.7535 8.15978 15.4703C7.4659 16.1871 7.07608 17.1593 7.07608 18.173V23.4414H73.2261V18.173C73.2261 17.16 72.8368 16.1885 72.1438 15.4718C71.4508 14.7551 70.5107 14.3519 69.5301 14.3508V14.3508Z" stroke="#B1BCD2" stroke-linejoin="round"/>
<path d="M10.775 19.2392C10.775 19.433 10.8119 19.6249 10.8837 19.8039C10.9555 19.983 11.0607 20.1457 11.1934 20.2827C11.326 20.4197 11.4835 20.5284 11.6568 20.6026C11.8302 20.6768 12.0159 20.7149 12.2035 20.7149C12.3911 20.7149 12.5769 20.6768 12.7502 20.6026C12.9235 20.5284 13.081 20.4197 13.2137 20.2827C13.3463 20.1457 13.4516 19.983 13.5234 19.8039C13.5952 19.6249 13.6321 19.433 13.6321 19.2392C13.6321 19.0454 13.5952 18.8535 13.5234 18.6745C13.4516 18.4954 13.3463 18.3327 13.2137 18.1957C13.081 18.0587 12.9235 17.95 12.7502 17.8758C12.5769 17.8016 12.3911 17.7635 12.2035 17.7635C12.0159 17.7635 11.8302 17.8016 11.6568 17.8758C11.4835 17.95 11.326 18.0587 11.1934 18.1957C11.0607 18.3327 10.9555 18.4954 10.8837 18.6745C10.8119 18.8535 10.775 19.0454 10.775 19.2392Z" fill="#EBEBF1" stroke="#B1BCD2" stroke-linejoin="round"/>
<path d="M15.775 19.2392C15.775 19.6306 15.9255 20.006 16.1934 20.2827C16.4613 20.5595 16.8247 20.7149 17.2035 20.7149C17.5824 20.7149 17.9458 20.5595 18.2137 20.2827C18.4816 20.006 18.6321 19.6306 18.6321 19.2392C18.6321 18.8478 18.4816 18.4724 18.2137 18.1957C17.9458 17.9189 17.5824 17.7635 17.2035 17.7635C16.8247 17.7635 16.4613 17.9189 16.1934 18.1957C15.9255 18.4724 15.775 18.8478 15.775 19.2392Z" fill="#EBEBF1" stroke="#B1BCD2" stroke-linejoin="round"/>
<path d="M20.775 19.2392C20.775 19.6306 20.9255 20.006 21.1934 20.2827C21.4613 20.5595 21.8247 20.7149 22.2035 20.7149C22.5824 20.7149 22.9458 20.5595 23.2137 20.2827C23.4816 20.006 23.6321 19.6306 23.6321 19.2392C23.6321 18.8478 23.4816 18.4724 23.2137 18.1957C22.9458 17.9189 22.5824 17.7635 22.2035 17.7635C21.8247 17.7635 21.4613 17.9189 21.1934 18.1957C20.9255 18.4724 20.775 18.8478 20.775 19.2392Z" fill="#EBEBF1" stroke="#B1BCD2" stroke-linejoin="round"/>
</svg>
