<svg width="80" height="84" viewBox="0 0 80 84" fill="none" xmlns="http://www.w3.org/2000/svg">
<path d="M0 42.1132C0 53.0722 4.21427 63.5823 11.7157 71.3314C19.2172 79.0806 29.3913 83.434 40 83.434C50.6087 83.434 60.7828 79.0806 68.2843 71.3314C75.7857 63.5823 80 53.0722 80 42.1132C80 31.1543 75.7857 20.6442 68.2843 12.895C60.7828 5.14588 50.6087 0.79245 40 0.79245C29.3913 0.79245 19.2172 5.14588 11.7157 12.895C4.21427 20.6442 0 31.1543 0 42.1132V42.1132Z" fill="#FBFBFD"/>
<path d="M18.4774 51.629C17.2876 48.6617 16.675 45.4808 16.675 42.2682C16.675 39.0555 17.2876 35.8746 18.4774 32.9073C19.6672 29.94 21.4107 27.2449 23.6076 24.9754C25.8045 22.706 28.4117 20.9067 31.2799 19.6794C34.1481 18.4522 37.2215 17.8207 40.325 17.8207C43.4285 17.8207 46.502 18.4522 49.3701 19.6794C52.2383 20.9067 54.8455 22.706 57.0424 24.9754C59.2393 27.2449 60.9828 29.94 62.1726 32.9073C63.3624 35.8746 63.975 39.0555 63.975 42.2682C63.975 45.4808 63.3624 48.6617 62.1726 51.629C60.9828 54.5963 59.2393 57.2914 57.0424 59.5609C54.8455 61.8303 52.2383 63.6296 49.3701 64.8569C46.502 66.0841 43.4285 66.7156 40.325 66.7156C37.2215 66.7156 34.1481 66.0841 31.2799 64.8569C28.4117 63.6296 25.8045 61.8303 23.6076 59.5609C21.4107 57.2914 19.6672 54.5963 18.4774 51.629Z" fill="#F1F3F9" stroke="#F0F1F4"/>
<path d="M62.2171 31.5516C60.7753 28.3665 58.6996 25.5311 56.1255 23.2305C53.5514 20.9299 50.5367 19.2157 47.2781 18.1998H43.6871C42.9088 18.1818 42.1491 18.4472 41.5412 18.9496C40.9333 19.452 40.5159 20.1593 40.3621 20.9477C40.2844 21.4216 40.3078 21.9074 40.4305 22.371C40.5532 22.8347 40.7723 23.2652 41.0726 23.6324C41.3729 23.9996 41.747 24.2948 42.169 24.4973C42.5911 24.6998 43.0508 24.8048 43.5161 24.805C43.908 24.8053 44.2946 24.8986 44.6461 25.0775C44.9976 25.2565 45.3048 25.5163 45.5438 25.8371C45.7829 26.1579 45.9475 26.5311 46.025 26.9279C46.1026 27.3247 46.091 27.7347 45.9911 28.1261C45.831 28.7013 45.4913 29.2058 45.0248 29.5608C44.5584 29.9158 43.9913 30.1014 43.4121 30.0889H34.2861C32.6042 30.0535 30.972 30.6792 29.7195 31.8393C28.4671 32.9995 27.6877 34.6076 27.5391 36.3386C27.4923 37.2347 27.6228 38.1312 27.9226 38.9734C28.2224 39.8156 28.6851 40.5859 29.2826 41.2372C29.8801 41.8886 30.5998 42.4073 31.3978 42.7618C32.1959 43.1163 33.0554 43.2991 33.9241 43.2991H37.6821C38.1268 43.2991 38.5534 43.4816 38.8679 43.8065C39.1824 44.1314 39.3591 44.572 39.3591 45.0315V46.4364C39.3572 46.6306 39.3926 46.8232 39.4631 47.0032C39.5337 47.1832 39.638 47.347 39.7701 47.4852C39.9021 47.6234 40.0594 47.7332 40.2327 47.8083C40.4061 47.8834 40.5921 47.9224 40.7801 47.9229C40.9705 47.9204 41.1595 47.9571 41.3361 48.0307C41.5128 48.1043 41.6735 48.2134 41.8089 48.3517C41.9444 48.49 42.0519 48.6547 42.1252 48.8363C42.1985 49.0179 42.2362 49.2127 42.2361 49.4094V51.2255C42.2587 51.5069 42.1843 51.7875 42.0261 52.0178C41.458 52.7355 41.1511 53.6361 41.1588 54.5632C41.1665 55.4903 41.4882 56.3854 42.0681 57.093C42.4593 57.5465 42.9413 57.9065 43.4808 58.1481C44.0203 58.3896 44.6043 58.5069 45.1921 58.4917H46.7121C50.8681 58.4917 52.1471 54.528 52.1471 52.5467V45.9416C52.146 45.2842 52.3197 44.6391 52.6493 44.0767C52.9789 43.5144 53.4517 43.0564 54.0161 42.7526C54.7636 42.2794 55.3811 41.6159 55.8095 40.8258C56.2379 40.0356 56.463 39.1451 56.4631 38.2394C56.462 38.1797 56.4384 38.1229 56.3973 38.081C56.3562 38.0391 56.3008 38.0155 56.2431 38.0152H53.7431C53.4039 38.0152 53.0786 37.876 52.8387 37.6282C52.5988 37.3805 52.4641 37.0444 52.4641 36.694V35.0411C52.4641 34.6907 52.5988 34.3547 52.8387 34.1069C53.0786 33.8591 53.4039 33.7199 53.7431 33.7199H59.2101C59.866 33.7204 60.5062 33.5127 61.0441 33.1249C61.5819 32.737 61.9914 32.1878 62.2171 31.5516Z" fill="white"/>
<path d="M16.175 42.0977C16.175 45.3738 16.7997 48.6179 18.0133 51.6446C19.227 54.6714 21.0059 57.4216 23.2484 59.7381C25.4909 62.0547 28.1532 63.8923 31.0832 65.1461C34.0132 66.3998 37.1536 67.0451 40.325 67.0451C43.4964 67.0451 46.6368 66.3998 49.5668 65.1461C52.4968 63.8923 55.1591 62.0547 57.4016 59.7381C59.6442 57.4216 61.423 54.6714 62.6367 51.6446C63.8503 48.6179 64.475 45.3738 64.475 42.0977C64.475 38.8215 63.8503 35.5775 62.6367 32.5507C61.423 29.524 59.6442 26.7738 57.4016 24.4572C55.1591 22.1406 52.4968 20.303 49.5668 19.0493C46.6368 17.7956 43.4964 17.1503 40.325 17.1503C37.1536 17.1503 34.0132 17.7956 31.0832 19.0493C28.1532 20.303 25.4909 22.1406 23.2484 24.4572C21.0059 26.7738 19.227 29.524 18.0133 32.5507C16.7997 35.5775 16.175 38.8215 16.175 42.0977V42.0977Z" stroke="#B1BCD2" stroke-linecap="round" stroke-linejoin="round"/>
<path d="M62.2171 31.5516C60.7753 28.3665 58.6996 25.5311 56.1255 23.2305C53.5514 20.9299 50.5367 19.2157 47.2781 18.1998H43.6871C42.9088 18.1818 42.1491 18.4472 41.5412 18.9496C40.9333 19.452 40.5159 20.1593 40.3621 20.9477C40.2844 21.4216 40.3078 21.9074 40.4305 22.371C40.5532 22.8347 40.7723 23.2652 41.0726 23.6324C41.3729 23.9996 41.747 24.2948 42.169 24.4973C42.5911 24.6998 43.0508 24.8048 43.5161 24.805C43.908 24.8053 44.2946 24.8986 44.6461 25.0775C44.9976 25.2565 45.3048 25.5163 45.5438 25.8371C45.7829 26.1579 45.9475 26.5311 46.025 26.9279C46.1026 27.3247 46.091 27.7347 45.9911 28.1261C45.831 28.7013 45.4913 29.2058 45.0248 29.5608C44.5584 29.9158 43.9913 30.1014 43.4121 30.0889H34.2861C32.6042 30.0535 30.972 30.6792 29.7195 31.8393C28.4671 32.9995 27.6877 34.6076 27.5391 36.3386C27.4923 37.2347 27.6228 38.1312 27.9226 38.9734C28.2224 39.8156 28.6851 40.5859 29.2826 41.2372C29.8801 41.8886 30.5998 42.4073 31.3978 42.7618C32.1959 43.1163 33.0554 43.2991 33.9241 43.2991H37.6821C38.1268 43.2991 38.5534 43.4816 38.8679 43.8065C39.1824 44.1314 39.3591 44.572 39.3591 45.0315V46.4364C39.3572 46.6306 39.3926 46.8232 39.4631 47.0032C39.5337 47.1832 39.638 47.347 39.7701 47.4852C39.9021 47.6234 40.0594 47.7332 40.2327 47.8083C40.4061 47.8834 40.5921 47.9224 40.7801 47.9229C40.9705 47.9204 41.1595 47.9571 41.3361 48.0307C41.5128 48.1043 41.6735 48.2134 41.8089 48.3517C41.9444 48.49 42.0519 48.6547 42.1252 48.8363C42.1985 49.0179 42.2362 49.2127 42.2361 49.4094V51.2255C42.2587 51.5069 42.1843 51.7875 42.0261 52.0178C41.458 52.7355 41.1511 53.6361 41.1588 54.5632C41.1665 55.4903 41.4882 56.3854 42.0681 57.093C42.4593 57.5465 42.9413 57.9065 43.4808 58.1481C44.0203 58.3896 44.6043 58.5069 45.1921 58.4917H46.7121C50.8681 58.4917 52.1471 54.528 52.1471 52.5467V45.9416C52.146 45.2842 52.3197 44.6391 52.6493 44.0767C52.9789 43.5144 53.4517 43.0564 54.0161 42.7526C54.7636 42.2794 55.3811 41.6159 55.8095 40.8258C56.2379 40.0356 56.463 39.1451 56.4631 38.2394C56.462 38.1797 56.4384 38.1229 56.3973 38.081C56.3562 38.0391 56.3008 38.0155 56.2431 38.0152H53.7431C53.4039 38.0152 53.0786 37.876 52.8387 37.6282C52.5988 37.3805 52.4641 37.0444 52.4641 36.694V35.0411C52.4641 34.6907 52.5988 34.3547 52.8387 34.1069C53.0786 33.8591 53.4039 33.7199 53.7431 33.7199H59.2101C59.866 33.7204 60.5062 33.5127 61.0441 33.1249C61.5819 32.737 61.9914 32.1878 62.2171 31.5516V31.5516Z" stroke="#B6C0D4" stroke-linecap="round" stroke-linejoin="round"/>
<path d="M32.9911 65.8726C33.2085 65.3727 33.561 64.9483 34.0063 64.6503C34.4515 64.3524 34.9706 64.1935 35.5011 64.1929C35.6934 64.1931 35.8836 64.1516 36.0595 64.0712C36.2353 63.9907 36.3929 63.8732 36.5221 63.726C36.7883 63.424 37.1125 63.1828 37.4741 63.0177C37.8357 62.8526 38.2267 62.7674 38.6221 62.7674H45.1621C45.5281 62.7674 45.8791 62.9176 46.1379 63.1849C46.3967 63.4522 46.5421 63.8148 46.5421 64.1929C46.5421 64.571 46.6875 64.9336 46.9463 65.2009C47.2051 65.4683 47.5561 65.6185 47.9221 65.6185H48.3931C43.4228 67.4287 38.0171 67.5183 32.9931 65.8736L32.9911 65.8726Z" fill="white" stroke="#B1BCD2" stroke-linecap="round" stroke-linejoin="round"/>
</svg>
